<svg width="117" height="26" fill="none" xmlns="http://www.w3.org/2000/svg"><path d="M.557 25V1.727h14.432V4.75H4.069v7.09h9.886v3.012H4.068V25H.557ZM19.034 25V7.545h3.398V25h-3.398ZM20.75 4.852a2.16 2.16 0 0 1-1.523-.59c-.416-.402-.625-.88-.625-1.432 0-.561.209-1.038.625-1.432A2.138 2.138 0 0 1 20.75.795c.59 0 1.095.201 1.511.603.425.394.637.871.637 1.432 0 .553-.212 1.03-.637 1.431a2.12 2.12 0 0 1-1.511.591ZM30.4 14.636V25h-3.397V7.545h3.261v2.841h.216a4.989 4.989 0 0 1 1.887-2.227c.863-.56 1.95-.84 3.26-.84 1.19 0 2.232.25 3.126.75.894.492 1.587 1.226 2.08 2.204.492.977.738 2.185.738 3.625V25h-3.398V14.307c0-1.265-.33-2.254-.988-2.966-.66-.72-1.565-1.08-2.716-1.08-.788 0-1.489.17-2.102.512-.607.34-1.088.84-1.444 1.5-.348.651-.522 1.44-.522 2.363ZM51.207 25.386c-1.106 0-2.106-.204-3-.613a5.053 5.053 0 0 1-2.125-1.807c-.515-.788-.772-1.754-.772-2.898 0-.985.19-1.795.568-2.432.379-.636.89-1.14 1.534-1.511a8.014 8.014 0 0 1 2.159-.84c.796-.19 1.606-.334 2.432-.433 1.045-.12 1.894-.22 2.545-.295.652-.084 1.125-.216 1.42-.398.296-.182.444-.477.444-.886v-.08c0-.992-.28-1.761-.841-2.307-.553-.545-1.379-.818-2.477-.818-1.144 0-2.046.254-2.705.762-.651.5-1.102 1.056-1.352 1.67l-3.193-.727c.378-1.06.932-1.917 1.659-2.568a6.73 6.73 0 0 1 2.534-1.432 9.893 9.893 0 0 1 3.011-.455c.697 0 1.436.084 2.216.25.788.16 1.523.455 2.205.887.69.431 1.253 1.049 1.693 1.852.44.795.659 1.83.659 3.102V25h-3.318v-2.386h-.136c-.22.439-.55.87-.99 1.295-.439.424-1.003.777-1.692 1.057-.69.28-1.516.42-2.478.42Zm.739-2.727c.94 0 1.742-.185 2.41-.557.673-.37 1.185-.856 1.533-1.454a3.772 3.772 0 0 0 .534-1.943v-2.25c-.12.12-.356.234-.704.34-.341.099-.731.186-1.17.262-.44.068-.868.132-1.285.193-.417.053-.765.099-1.045.136a8.427 8.427 0 0 0-1.807.42c-.538.198-.97.482-1.295.853-.319.364-.478.849-.478 1.455 0 .84.31 1.477.932 1.909.621.424 1.413.636 2.375.636ZM67.744 14.636V25h-3.397V7.545h3.261v2.841h.216A4.99 4.99 0 0 1 69.71 8.16c.864-.56 1.951-.84 3.262-.84 1.189 0 2.23.25 3.125.75.894.492 1.587 1.226 2.08 2.204.492.977.738 2.185.738 3.625V25h-3.398V14.307c0-1.265-.33-2.254-.989-2.966-.659-.72-1.564-1.08-2.716-1.08-.787 0-1.488.17-2.102.512-.606.34-1.087.84-1.443 1.5-.348.651-.523 1.44-.523 2.363ZM90.824 25.352c-1.69 0-3.144-.382-4.364-1.147-1.212-.773-2.144-1.838-2.795-3.194-.652-1.356-.978-2.909-.978-4.659 0-1.772.334-3.337 1-4.693.667-1.364 1.607-2.428 2.819-3.193 1.212-.765 2.64-1.148 4.284-1.148 1.325 0 2.507.246 3.545.739 1.038.485 1.875 1.166 2.512 2.045.644.88 1.026 1.906 1.147 3.08h-3.306c-.182-.818-.599-1.523-1.25-2.114-.644-.59-1.508-.886-2.591-.886-.947 0-1.777.25-2.489.75-.705.492-1.254 1.197-1.648 2.114-.394.909-.59 1.984-.59 3.227 0 1.273.192 2.371.579 3.295.386.924.932 1.64 1.636 2.148.712.508 1.55.761 2.512.761.644 0 1.227-.117 1.75-.352.53-.242.973-.587 1.33-1.034.363-.447.617-.985.76-1.614h3.307c-.12 1.13-.488 2.137-1.102 3.023-.614.886-1.436 1.583-2.466 2.09-1.023.509-2.223.762-3.602.762ZM109.151 25.352c-1.72 0-3.201-.367-4.444-1.102-1.234-.742-2.189-1.784-2.863-3.125-.667-1.349-1-2.928-1-4.739 0-1.787.333-3.363 1-4.727.674-1.364 1.613-2.428 2.818-3.193 1.212-.765 2.629-1.148 4.25-1.148.985 0 1.939.163 2.864.489a6.937 6.937 0 0 1 2.488 1.534c.735.697 1.315 1.602 1.739 2.716.424 1.106.636 2.45.636 4.034v1.204h-13.875V14.75h10.546c0-.894-.182-1.686-.546-2.375a4.12 4.12 0 0 0-1.534-1.648c-.651-.401-1.417-.602-2.295-.602-.955 0-1.788.235-2.5.705a4.731 4.731 0 0 0-1.637 1.818 5.259 5.259 0 0 0-.568 2.42v1.989c0 1.167.205 2.159.614 2.977.416.818.996 1.443 1.738 1.875.743.424 1.61.637 2.603.637.644 0 1.231-.091 1.761-.273.53-.19.989-.47 1.375-.841a3.65 3.65 0 0 0 .886-1.375l3.216.58a5.813 5.813 0 0 1-1.386 2.488c-.659.705-1.489 1.254-2.489 1.648-.992.386-2.125.58-3.397.58Z" fill="#CC2929"/></svg>